<mxfile host="app.diagrams.net" modified="2023-12-11T15:14:20.883Z" agent="Mozilla/5.0 (Windows NT 10.0; Win64; x64) AppleWebKit/537.36 (KHTML, like Gecko) Chrome/119.0.0.0 Safari/537.36" etag="WKvnUL41FCNI50CtY1zv" version="22.1.7" type="device">
  <diagram name="Halaman-1" id="dyefb9rLx9OYs4fPIrLo">
    <mxGraphModel dx="1843" dy="876" grid="1" gridSize="10" guides="1" tooltips="1" connect="1" arrows="1" fold="1" page="1" pageScale="1" pageWidth="827" pageHeight="1169" math="0" shadow="0">
      <root>
        <mxCell id="0" />
        <mxCell id="1" parent="0" />
        <mxCell id="Yk3WFkhIf93YjwVm7y13-1" value="" style="shape=table;startSize=0;container=1;collapsible=0;childLayout=tableLayout;" vertex="1" parent="1">
          <mxGeometry x="39" y="240" width="741" height="840" as="geometry" />
        </mxCell>
        <mxCell id="Yk3WFkhIf93YjwVm7y13-2" value="" style="shape=tableRow;horizontal=0;startSize=0;swimlaneHead=0;swimlaneBody=0;strokeColor=inherit;top=0;left=0;bottom=0;right=0;collapsible=0;dropTarget=0;fillColor=none;points=[[0,0.5],[1,0.5]];portConstraint=eastwest;" vertex="1" parent="Yk3WFkhIf93YjwVm7y13-1">
          <mxGeometry width="741" height="60" as="geometry" />
        </mxCell>
        <mxCell id="Yk3WFkhIf93YjwVm7y13-3" value="Player" style="shape=partialRectangle;html=1;whiteSpace=wrap;connectable=0;strokeColor=inherit;overflow=hidden;fillColor=none;top=0;left=0;bottom=0;right=0;pointerEvents=1;" vertex="1" parent="Yk3WFkhIf93YjwVm7y13-2">
          <mxGeometry width="350" height="60" as="geometry">
            <mxRectangle width="350" height="60" as="alternateBounds" />
          </mxGeometry>
        </mxCell>
        <mxCell id="Yk3WFkhIf93YjwVm7y13-4" value="Sistem" style="shape=partialRectangle;html=1;whiteSpace=wrap;connectable=0;strokeColor=inherit;overflow=hidden;fillColor=none;top=0;left=0;bottom=0;right=0;pointerEvents=1;" vertex="1" parent="Yk3WFkhIf93YjwVm7y13-2">
          <mxGeometry x="350" width="391" height="60" as="geometry">
            <mxRectangle width="391" height="60" as="alternateBounds" />
          </mxGeometry>
        </mxCell>
        <mxCell id="Yk3WFkhIf93YjwVm7y13-5" value="" style="shape=tableRow;horizontal=0;startSize=0;swimlaneHead=0;swimlaneBody=0;strokeColor=inherit;top=0;left=0;bottom=0;right=0;collapsible=0;dropTarget=0;fillColor=none;points=[[0,0.5],[1,0.5]];portConstraint=eastwest;" vertex="1" parent="Yk3WFkhIf93YjwVm7y13-1">
          <mxGeometry y="60" width="741" height="780" as="geometry" />
        </mxCell>
        <mxCell id="Yk3WFkhIf93YjwVm7y13-6" value="" style="shape=partialRectangle;html=1;whiteSpace=wrap;connectable=0;strokeColor=inherit;overflow=hidden;fillColor=none;top=0;left=0;bottom=0;right=0;pointerEvents=1;" vertex="1" parent="Yk3WFkhIf93YjwVm7y13-5">
          <mxGeometry width="350" height="780" as="geometry">
            <mxRectangle width="350" height="780" as="alternateBounds" />
          </mxGeometry>
        </mxCell>
        <mxCell id="Yk3WFkhIf93YjwVm7y13-7" value="" style="shape=partialRectangle;html=1;whiteSpace=wrap;connectable=0;strokeColor=inherit;overflow=hidden;fillColor=none;top=0;left=0;bottom=0;right=0;pointerEvents=1;" vertex="1" parent="Yk3WFkhIf93YjwVm7y13-5">
          <mxGeometry x="350" width="391" height="780" as="geometry">
            <mxRectangle width="391" height="780" as="alternateBounds" />
          </mxGeometry>
        </mxCell>
        <mxCell id="Yk3WFkhIf93YjwVm7y13-14" value="Player memilih quiz dengan kategori yang diingingkan" style="rounded=1;whiteSpace=wrap;html=1;" vertex="1" parent="Yk3WFkhIf93YjwVm7y13-5">
          <mxGeometry x="741" width="NaN" height="780" as="geometry">
            <mxRectangle width="NaN" height="780" as="alternateBounds" />
          </mxGeometry>
        </mxCell>
        <mxCell id="Yk3WFkhIf93YjwVm7y13-15" value="" style="edgeStyle=orthogonalEdgeStyle;rounded=0;orthogonalLoop=1;jettySize=auto;html=1;" edge="1" parent="1" source="Yk3WFkhIf93YjwVm7y13-8" target="Yk3WFkhIf93YjwVm7y13-14">
          <mxGeometry relative="1" as="geometry" />
        </mxCell>
        <mxCell id="Yk3WFkhIf93YjwVm7y13-16" style="edgeStyle=orthogonalEdgeStyle;rounded=0;orthogonalLoop=1;jettySize=auto;html=1;exitX=1;exitY=0.5;exitDx=0;exitDy=0;entryX=0;entryY=0.5;entryDx=0;entryDy=0;" edge="1" parent="1" source="Yk3WFkhIf93YjwVm7y13-8" target="Yk3WFkhIf93YjwVm7y13-12">
          <mxGeometry relative="1" as="geometry" />
        </mxCell>
        <mxCell id="Yk3WFkhIf93YjwVm7y13-8" value="Player memilih quiz dengan kategori yang diingingkan" style="rounded=1;whiteSpace=wrap;html=1;" vertex="1" parent="1">
          <mxGeometry x="110" y="370" width="120" height="50" as="geometry" />
        </mxCell>
        <mxCell id="Yk3WFkhIf93YjwVm7y13-10" style="edgeStyle=orthogonalEdgeStyle;rounded=0;orthogonalLoop=1;jettySize=auto;html=1;exitX=0.5;exitY=1;exitDx=0;exitDy=0;entryX=0.5;entryY=0;entryDx=0;entryDy=0;" edge="1" parent="1" source="Yk3WFkhIf93YjwVm7y13-9" target="Yk3WFkhIf93YjwVm7y13-8">
          <mxGeometry relative="1" as="geometry" />
        </mxCell>
        <mxCell id="Yk3WFkhIf93YjwVm7y13-9" value="" style="ellipse;whiteSpace=wrap;html=1;aspect=fixed;fillColor=#050505;" vertex="1" parent="1">
          <mxGeometry x="155" y="310" width="30" height="30" as="geometry" />
        </mxCell>
        <mxCell id="Yk3WFkhIf93YjwVm7y13-11" value="&lt;font style=&quot;font-size: 24px;&quot;&gt;&lt;b style=&quot;&quot;&gt;Masuk Lobby&lt;/b&gt;&lt;/font&gt;" style="text;html=1;strokeColor=none;fillColor=none;align=center;verticalAlign=middle;whiteSpace=wrap;rounded=0;" vertex="1" parent="1">
          <mxGeometry x="360" y="190" width="80" height="30" as="geometry" />
        </mxCell>
        <mxCell id="Yk3WFkhIf93YjwVm7y13-12" value="Sistem mencari lobby yang ada dengan quiz yang sama" style="rounded=1;whiteSpace=wrap;html=1;" vertex="1" parent="1">
          <mxGeometry x="530" y="370" width="120" height="50" as="geometry" />
        </mxCell>
        <mxCell id="Yk3WFkhIf93YjwVm7y13-13" value="" style="ellipse;html=1;shape=endState;fillColor=#000000;strokeColor=#ff0000;" vertex="1" parent="1">
          <mxGeometry x="575" y="1010" width="30" height="30" as="geometry" />
        </mxCell>
        <mxCell id="Yk3WFkhIf93YjwVm7y13-20" style="edgeStyle=orthogonalEdgeStyle;rounded=0;orthogonalLoop=1;jettySize=auto;html=1;exitX=0;exitY=0.5;exitDx=0;exitDy=0;exitPerimeter=0;entryX=0.5;entryY=1;entryDx=0;entryDy=0;" edge="1" parent="1" source="Yk3WFkhIf93YjwVm7y13-17" target="Yk3WFkhIf93YjwVm7y13-8">
          <mxGeometry relative="1" as="geometry" />
        </mxCell>
        <mxCell id="Yk3WFkhIf93YjwVm7y13-27" style="edgeStyle=orthogonalEdgeStyle;rounded=0;orthogonalLoop=1;jettySize=auto;html=1;exitX=0.5;exitY=1;exitDx=0;exitDy=0;exitPerimeter=0;entryX=1;entryY=0.5;entryDx=0;entryDy=0;" edge="1" parent="1" source="Yk3WFkhIf93YjwVm7y13-17" target="Yk3WFkhIf93YjwVm7y13-26">
          <mxGeometry relative="1" as="geometry" />
        </mxCell>
        <mxCell id="Yk3WFkhIf93YjwVm7y13-17" value="" style="strokeWidth=2;html=1;shape=mxgraph.flowchart.decision;whiteSpace=wrap;" vertex="1" parent="1">
          <mxGeometry x="540" y="450" width="100" height="100" as="geometry" />
        </mxCell>
        <mxCell id="Yk3WFkhIf93YjwVm7y13-19" style="edgeStyle=orthogonalEdgeStyle;rounded=0;orthogonalLoop=1;jettySize=auto;html=1;exitX=0.5;exitY=1;exitDx=0;exitDy=0;entryX=0.5;entryY=0;entryDx=0;entryDy=0;entryPerimeter=0;" edge="1" parent="1" source="Yk3WFkhIf93YjwVm7y13-12" target="Yk3WFkhIf93YjwVm7y13-17">
          <mxGeometry relative="1" as="geometry" />
        </mxCell>
        <mxCell id="Yk3WFkhIf93YjwVm7y13-25" value="Tak Tersedia" style="text;html=1;strokeColor=none;fillColor=none;align=center;verticalAlign=middle;whiteSpace=wrap;rounded=0;" vertex="1" parent="1">
          <mxGeometry x="470" y="470" width="60" height="30" as="geometry" />
        </mxCell>
        <mxCell id="Yk3WFkhIf93YjwVm7y13-35" style="edgeStyle=orthogonalEdgeStyle;rounded=0;orthogonalLoop=1;jettySize=auto;html=1;exitX=0.5;exitY=1;exitDx=0;exitDy=0;entryX=0.5;entryY=0;entryDx=0;entryDy=0;" edge="1" parent="1" source="Yk3WFkhIf93YjwVm7y13-26" target="Yk3WFkhIf93YjwVm7y13-29">
          <mxGeometry relative="1" as="geometry" />
        </mxCell>
        <mxCell id="Yk3WFkhIf93YjwVm7y13-26" value="Player masuk kedalam lobby" style="rounded=1;whiteSpace=wrap;html=1;" vertex="1" parent="1">
          <mxGeometry x="110" y="550" width="120" height="50" as="geometry" />
        </mxCell>
        <mxCell id="Yk3WFkhIf93YjwVm7y13-28" value="Tersedia" style="text;html=1;strokeColor=none;fillColor=none;align=center;verticalAlign=middle;whiteSpace=wrap;rounded=0;" vertex="1" parent="1">
          <mxGeometry x="510" y="550" width="60" height="30" as="geometry" />
        </mxCell>
        <mxCell id="Yk3WFkhIf93YjwVm7y13-29" value="Player bersiap untuk memulai quiz" style="rounded=1;whiteSpace=wrap;html=1;" vertex="1" parent="1">
          <mxGeometry x="110" y="670" width="120" height="50" as="geometry" />
        </mxCell>
        <mxCell id="Yk3WFkhIf93YjwVm7y13-40" style="edgeStyle=orthogonalEdgeStyle;rounded=0;orthogonalLoop=1;jettySize=auto;html=1;exitX=0;exitY=0.5;exitDx=0;exitDy=0;exitPerimeter=0;entryX=1;entryY=0.5;entryDx=0;entryDy=0;" edge="1" parent="1" source="Yk3WFkhIf93YjwVm7y13-31" target="Yk3WFkhIf93YjwVm7y13-29">
          <mxGeometry relative="1" as="geometry" />
        </mxCell>
        <mxCell id="Yk3WFkhIf93YjwVm7y13-44" style="edgeStyle=orthogonalEdgeStyle;rounded=0;orthogonalLoop=1;jettySize=auto;html=1;exitX=0.5;exitY=1;exitDx=0;exitDy=0;exitPerimeter=0;entryX=0.5;entryY=0;entryDx=0;entryDy=0;" edge="1" parent="1" source="Yk3WFkhIf93YjwVm7y13-31" target="Yk3WFkhIf93YjwVm7y13-42">
          <mxGeometry relative="1" as="geometry" />
        </mxCell>
        <mxCell id="Yk3WFkhIf93YjwVm7y13-31" value="" style="strokeWidth=2;html=1;shape=mxgraph.flowchart.decision;whiteSpace=wrap;" vertex="1" parent="1">
          <mxGeometry x="540" y="710" width="100" height="100" as="geometry" />
        </mxCell>
        <mxCell id="Yk3WFkhIf93YjwVm7y13-38" value="Sistem menunggu semua player bersiap" style="rounded=1;whiteSpace=wrap;html=1;" vertex="1" parent="1">
          <mxGeometry x="530" y="610" width="120" height="50" as="geometry" />
        </mxCell>
        <mxCell id="Yk3WFkhIf93YjwVm7y13-39" style="edgeStyle=orthogonalEdgeStyle;rounded=0;orthogonalLoop=1;jettySize=auto;html=1;exitX=0.5;exitY=1;exitDx=0;exitDy=0;entryX=0.5;entryY=0;entryDx=0;entryDy=0;entryPerimeter=0;" edge="1" parent="1" source="Yk3WFkhIf93YjwVm7y13-38" target="Yk3WFkhIf93YjwVm7y13-31">
          <mxGeometry relative="1" as="geometry" />
        </mxCell>
        <mxCell id="Yk3WFkhIf93YjwVm7y13-41" value="Belum" style="text;html=1;strokeColor=none;fillColor=none;align=center;verticalAlign=middle;whiteSpace=wrap;rounded=0;" vertex="1" parent="1">
          <mxGeometry x="460" y="730" width="60" height="30" as="geometry" />
        </mxCell>
        <mxCell id="Yk3WFkhIf93YjwVm7y13-46" style="edgeStyle=orthogonalEdgeStyle;rounded=0;orthogonalLoop=1;jettySize=auto;html=1;exitX=0.5;exitY=1;exitDx=0;exitDy=0;" edge="1" parent="1" source="Yk3WFkhIf93YjwVm7y13-42" target="Yk3WFkhIf93YjwVm7y13-13">
          <mxGeometry relative="1" as="geometry" />
        </mxCell>
        <mxCell id="Yk3WFkhIf93YjwVm7y13-42" value="Player akan memasuki pertandingan dalam beberapa deitk" style="rounded=1;whiteSpace=wrap;html=1;arcSize=35;" vertex="1" parent="1">
          <mxGeometry x="520" y="860" width="140" height="70" as="geometry" />
        </mxCell>
        <mxCell id="Yk3WFkhIf93YjwVm7y13-45" value="Sudah" style="text;html=1;strokeColor=none;fillColor=none;align=center;verticalAlign=middle;whiteSpace=wrap;rounded=0;" vertex="1" parent="1">
          <mxGeometry x="590" y="810" width="60" height="30" as="geometry" />
        </mxCell>
      </root>
    </mxGraphModel>
  </diagram>
</mxfile>
